<?xml version="1.0" encoding="UTF-8" standalone="no"?>
<!-- Created with Inkscape (http://www.inkscape.org/) -->

<svg
   version="1.1"
   id="svg9"
   width="320"
   height="240"
   viewBox="0 0 320 240"
   sodipodi:docname="logo_site_arredondada.svg"
   xml:space="preserve"
   inkscape:version="1.2.2 (732a01da63, 2022-12-09)"
   xmlns:inkscape="http://www.inkscape.org/namespaces/inkscape"
   xmlns:sodipodi="http://sodipodi.sourceforge.net/DTD/sodipodi-0.dtd"
   xmlns:xlink="http://www.w3.org/1999/xlink"
   xmlns="http://www.w3.org/2000/svg"
   xmlns:svg="http://www.w3.org/2000/svg"><defs
     id="defs13" /><sodipodi:namedview
     id="namedview11"
     pagecolor="#ffffff"
     bordercolor="#cccccc"
     borderopacity="1"
     inkscape:showpageshadow="0"
     inkscape:pageopacity="1"
     inkscape:pagecheckerboard="0"
     inkscape:deskcolor="#d1d1d1"
     showgrid="false"
     inkscape:zoom="1.4142136"
     inkscape:cx="181.37289"
     inkscape:cy="115.2584"
     inkscape:window-width="1920"
     inkscape:window-height="1017"
     inkscape:window-x="-8"
     inkscape:window-y="-8"
     inkscape:window-maximized="1"
     inkscape:current-layer="g15" /><g
     inkscape:groupmode="layer"
     inkscape:label="Image"
     id="g15"><image
       width="320"
       height="240"
       preserveAspectRatio="none"
       xlink:href="logo_site.png"
       id="image17"
       x="1289.9263"
       y="-15.036855" /><path
       style="fill:#000000;stroke-width:0.32"
       d="m 154.61815,179.99393 c -6.4e-4,-0.396 -0.29301,-2.232 -0.64996,-4.08 -0.649,-3.36 -0.649,-3.36 -5.75903,-8.48353 -5.11004,-5.12353 -5.11004,-5.12353 -5.11004,-11.23048 0,-6.10695 0,-6.10695 -4.64,-10.70796 -4.64,-4.60101 -4.64,-4.60101 -4.64,-9.26674 0,-4.66573 0,-4.66573 1.12664,-5.75772 1.12664,-1.09198 1.12664,-1.09198 -3.27571,-5.50277 -4.40236,-4.41079 -4.40236,-4.41079 -18.52297,-4.41079 -14.120604,0 -14.120604,0 -19.666164,-5.6 -5.54555,-5.6 -5.54555,-5.6 -7.96111,-5.6 -2.41556,0 -2.41556,0 -13.19183,-10.880002 -10.77628,-10.88 -10.77628,-10.88 27.36544,-10.88 38.141724,0 38.141724,0 40.527304,-2.40161 2.38558,-2.401612 2.38558,-2.401612 -1.60207,-6.398864 -3.98766,-3.997254 -3.98766,-3.997254 -1.35359,-6.645075 1.44873,-1.456301 2.63406,-2.787069 2.63406,-2.957261 0,-0.170192 -2.11918,-2.43216 -4.70929,-5.026595 -4.70928,-4.717152 -4.70928,-4.717152 -3.60958,-5.851763 1.09971,-1.134608 1.09971,-1.134608 12.22929,9.991565 11.12958,11.126176 11.12958,11.126176 22.25916,0 11.12958,-11.126173 11.12958,-11.126173 12.22929,-9.991565 1.09971,1.134611 1.09971,1.134611 -3.60958,5.851763 -2.59011,2.594435 -4.70929,4.856403 -4.70929,5.026595 0,0.170192 1.18533,1.50096 2.63407,2.957261 2.63406,2.647821 2.63406,2.647821 -1.3536,6.645075 -3.98765,3.997252 -3.98765,3.997252 -1.60335,6.397568 2.3843,2.40032 2.3843,2.40032 40.42938,2.481613 38.04508,0.08129 38.04508,0.08129 27.36329,10.881293 -10.68179,10.800002 -10.68179,10.800002 -13.07922,10.800002 -2.39743,0 -2.39743,0 -7.99057,5.6 -5.59314,5.6 -5.59314,5.6 -19.68086,5.6 -14.08771,0 -14.08771,0 -18.49006,4.41079 -4.40236,4.41079 -4.40236,4.41079 -3.27572,5.50277 1.12664,1.09199 1.12664,1.09199 1.12664,5.75335 0,4.66137 0,4.66137 -4.64,9.29309 -4.64,4.63171 -4.64,4.63171 -4.64,10.71232 0,6.08061 0,6.08061 -5.11003,11.20414 -5.11004,5.12353 -5.11004,5.12353 -5.75904,8.48353 -0.35694,1.848 -0.64943,3.684 -0.64996,4.08 -6.4e-4,0.396 -0.14497,0.72 -0.32097,0.72 -0.176,0 -0.32043,-0.324 -0.32097,-0.72 z m -4.78829,-23.10571 c -3.53074,-3.53073 -3.53074,-3.53073 -3.53074,0.30226 0,3.833 0,3.833 3.44,7.28471 3.44,3.45171 3.44,3.45171 3.53074,-0.30226 0.0907,-3.75397 0.0907,-3.75397 -3.44,-7.28471 z m 13.74926,0.31663 c 0,-3.84 0,-3.84 -3.52,-0.33092 -3.52,3.50908 -3.52,3.50908 -3.52,7.34908 0,3.84 0,3.84 3.52,0.33092 3.52,-3.50908 3.52,-3.50908 3.52,-7.34908 z m 0.3979,-8.72877 c 8.8821,-8.87786 8.8821,-8.87786 8.8821,-12.2704 0,-3.01163 -0.0735,-3.45908 -0.65475,-3.98509 -0.64819,-0.58661 -0.73802,-0.50932 -8.96,7.7081 -8.30525,8.30064 -8.30525,8.30064 -16.6105,0 -8.22197,-8.21742 -8.31181,-8.29471 -8.96,-7.7081 -0.58079,0.52562 -0.65475,0.9736 -0.65475,3.96623 0,3.37369 0,3.37369 8.87455,12.27041 4.88099,4.89318 8.94805,8.8967 9.03789,8.8967 0.0898,0 4.1603,-3.99504 9.04546,-8.87785 z m -1.92057,-11.83941 c 3.82947,-3.8265 6.96267,-7.10637 6.96267,-7.28859 0,-0.18221 -1.01189,-1.33544 -2.24865,-2.56272 -1.23675,-1.22728 -2.31489,-2.23142 -2.39585,-2.23142 -0.081,0 -2.23707,2.08614 -4.79135,4.63586 -4.64415,4.63586 -4.64415,4.63586 -9.20815,0.08 -2.5102,-2.50572 -4.71007,-4.55586 -4.88858,-4.55586 -0.17852,0 -1.32872,1.01189 -2.556,2.24865 -1.22728,1.23675 -2.19422,2.35275 -2.14875,2.48 0.0455,0.12724 3.21224,3.36335 7.03727,7.19135 3.82503,3.828 7.02663,6.96 7.11467,6.96 0.088,0 3.29326,-3.13077 7.12272,-6.95727 z m -3.43549,-10.96457 c 3.51092,-3.52185 3.51092,-3.52185 -0.0832,-7.11595 -3.59411,-3.5941 -3.59411,-3.5941 -6.61988,-0.5809 -1.66418,1.65725 -2.93896,3.15368 -2.83284,3.32538 0.10612,0.17171 0.043,0.21953 -0.14024,0.10628 -0.18325,-0.11326 -0.51836,0.0172 -0.74469,0.28991 -0.3528,0.4251 0.0863,0.99519 3.07829,3.99648 1.91938,1.92535 3.5667,3.50064 3.6607,3.50064 0.094,0 1.75083,-1.58483 3.68184,-3.52184 z m -17.94113,-0.92673 c 0.86939,-0.88917 1.51739,-1.68734 1.44,-1.7737 -0.0774,-0.0864 -3.15712,-3.18568 -6.84385,-6.88738 -6.70314,-6.73035 -6.70314,-6.73035 -24.56,-6.73035 -9.82127,0 -17.856864,0.11025 -17.856864,0.245 0,0.13475 1.69416,1.93475 3.7648,4 3.764814,3.755 3.764814,3.755 17.844004,3.755 14.0792,0 14.0792,0 18.85206,4.78083 3.69151,3.69767 4.88685,4.71812 5.276,4.50405 0.27673,-0.15222 1.21446,-1.00428 2.08385,-1.89345 z m 35.85929,-2.59143 c 4.792,-4.8 4.792,-4.8 18.87119,-4.8 14.0792,0 14.0792,0 17.844,-3.755 2.07065,-2.06525 3.76481,-3.86525 3.76481,-4 0,-0.13475 -8.028,-0.24424 -17.84,-0.24332 -17.84,0.002 -17.84,0.002 -24.47663,6.64 -3.65015,3.65108 -6.73791,6.75009 -6.8617,6.88669 -0.12379,0.1366 0.62619,1.1086 1.66661,2.16 1.04043,1.0514 1.97,1.91163 2.06571,1.91163 0.0957,0 2.33041,-2.16 4.96601,-4.8 z m -27.44429,-5.83556 c 4.24429,-4.23555 4.24429,-4.23555 4.24429,-7.28514 0,-3.04959 0,-3.04959 -7.75689,-10.804442 -7.7569,-7.75486 -7.7569,-7.75486 -42.08001,-7.75486 -18.877714,0 -34.323104,0.1069 -34.323104,0.23755 0,0.13065 3.41887,3.65865 7.5975,7.84 7.5975,7.602452 7.5975,7.602452 30.482664,7.602452 22.88518,0 22.88518,0 30.07984,7.2 3.95707,3.96 7.26594,7.2 7.35304,7.2 0.0871,0 2.06831,-1.906 4.40267,-4.23556 z m -10.95571,-10.48444 c -6.07368,-6.080002 -6.07368,-6.080002 -29.93022,-6.080002 -23.856534,0 -23.856534,0 -25.269784,-1.44 -1.41326,-1.44 -1.41326,-1.44 24.656304,-1.44 26.06956,0 26.06956,0 32.55392,6.490162 6.48437,6.49016 6.48437,6.49016 5.42184,7.52 -0.58439,0.56641 -1.12909,1.02984 -1.21045,1.02984 -0.0814,0 -2.88108,-2.736 -6.22161,-6.08 z m 34.49478,7.44 c 7.14281,-7.12 7.14281,-7.12 30.00652,-7.12 22.8637,0 22.8637,0 30.4612,-7.602452 4.17863,-4.18135 7.5975,-7.70935 7.5975,-7.84 0,-0.13065 -15.45064,-0.23755 -34.33476,-0.23755 -34.33476,0 -34.33476,0 -42.08,7.75993 -7.74524,7.759922 -7.74524,7.759922 -7.74524,10.795712 0,3.03578 0,3.03578 4.23666,7.28118 2.33017,2.33497 4.34437,4.2089 4.47599,4.16429 0.13164,-0.0446 3.45359,-3.28511 7.38213,-7.20111 z m -8.34595,-2.40898 c -1.01671,-1.04898 -1.01671,-1.04898 5.46009,-7.52 6.4768,-6.471022 6.4768,-6.471022 32.54057,-6.471022 26.06377,0 26.06377,0 24.65051,1.44 -1.41325,1.44 -1.41325,1.44 -25.26978,1.44 -23.85654,0 -23.85654,0 -29.93022,6.080002 -3.34052,3.344 -6.15486,6.08 -6.25407,6.08 -0.0992,0 -0.6379,-0.47204 -1.1971,-1.04898 z m -2.23443,-14.865372 c 6.95974,-6.954341 6.95974,-6.954341 4.96913,-8.962808 -1.99062,-2.008468 -1.99062,-2.008468 -7.03707,3.030598 -5.04646,5.03906 -5.04646,5.03906 -10.08988,0.003 -5.04342,-5.036032 -5.04342,-5.036032 -7.04027,-3.039184 -1.99684,1.996845 -1.99684,1.996845 4.9607,8.959784 3.82664,3.82961 7.02956,6.962932 7.1176,6.962932 0.088,0 3.29194,-3.129462 7.11979,-6.954352 z m 0.88492,-13.364968 c 7.83442,-7.839322 7.83442,-7.839322 6.15719,-9.516557 -1.67724,-1.677239 -1.67724,-1.677239 -7.91687,4.55624 -6.23964,6.233481 -6.23964,6.233481 -12.47927,0 -6.23964,-6.233479 -6.23964,-6.233479 -7.91687,-4.55624 -1.67724,1.677235 -1.67724,1.677235 6.15718,9.516557 4.30893,4.311625 7.90863,7.839318 7.99932,7.839318 0.0907,0 3.69039,-3.527693 7.99932,-7.839318 z M 131.89912,57.033938 c 0,-0.088 0.072,-0.16 0.16,-0.16 0.088,0 0.16,0.072 0.16,0.16 0,0.088 -0.072,0.16 -0.16,0.16 -0.088,0 -0.16,-0.072 -0.16,-0.16 z"
       id="path3894" /></g></svg>
