<?xml version="1.0" encoding="UTF-8" standalone="no"?>
<!-- Created with Inkscape (http://www.inkscape.org/) -->

<svg
   version="1.1"
   id="svg9"
   width="320"
   height="240"
   viewBox="0 0 320 240"
   sodipodi:docname="logo_site.svg"
   xml:space="preserve"
   inkscape:version="1.2.2 (732a01da63, 2022-12-09)"
   xmlns:inkscape="http://www.inkscape.org/namespaces/inkscape"
   xmlns:sodipodi="http://sodipodi.sourceforge.net/DTD/sodipodi-0.dtd"
   xmlns:xlink="http://www.w3.org/1999/xlink"
   xmlns="http://www.w3.org/2000/svg"
   xmlns:svg="http://www.w3.org/2000/svg"><defs
     id="defs13" /><sodipodi:namedview
     id="namedview11"
     pagecolor="#ffffff"
     bordercolor="#cccccc"
     borderopacity="1"
     inkscape:showpageshadow="0"
     inkscape:pageopacity="1"
     inkscape:pagecheckerboard="0"
     inkscape:deskcolor="#d1d1d1"
     showgrid="false"
     inkscape:zoom="1.4142136"
     inkscape:cx="181.37289"
     inkscape:cy="115.2584"
     inkscape:window-width="1920"
     inkscape:window-height="1017"
     inkscape:window-x="-8"
     inkscape:window-y="-8"
     inkscape:window-maximized="1"
     inkscape:current-layer="g15" /><g
     inkscape:groupmode="layer"
     inkscape:label="Image"
     id="g15"><image
       width="320"
       height="240"
       preserveAspectRatio="none"
       xlink:href="logo_site.png"
       id="image17"
       x="1289.9263"
       y="-15.036855" /><path
       style="fill:#000000;stroke-width:0.32"
       d="m 152.64396,171.54947 -0.649,-3.36 -5.11003,-5.12354 -5.11004,-5.12353 v -6.10695 -6.10695 l -4.64,-4.60101 -4.64,-4.60101 v -4.66573 -4.66574 l 1.12664,-1.09198 1.12664,-1.09198 -4.40235,-4.41079 -4.40235,-4.41079 H 111.82286 97.702246 l -5.54556,-5.6 -5.54555,-5.6 h -2.41556 -2.41556 l -10.77627,-10.879995 -10.77627,-10.88 h 38.14171 38.141724 l 2.38558,-2.40161 2.38558,-2.401612 -3.98765,-3.997252 -3.98766,-3.997254 2.63407,-2.647821 c 1.44874,-1.456301 2.63406,-2.787069 2.63406,-2.957261 0,-0.170192 -2.11918,-2.43216 -4.70929,-5.026595 l -4.70928,-4.717152 1.0997,-1.134611 1.09971,-1.134608 11.12958,11.126173 11.12958,11.126176 11.12958,-11.126176 11.12958,-11.126173 1.09971,1.134608 1.09971,1.134611 -4.70929,4.717152 c -2.59011,2.594435 -4.70929,4.856403 -4.70929,5.026595 0,0.170192 1.18533,1.50096 2.63407,2.957261 l 2.63406,2.647821 -3.98765,3.997254 -3.98766,3.997252 2.3843,2.400316 2.3843,2.40032 38.04508,0.08129 38.04508,0.08129 -10.68179,10.799996 -10.68179,10.799995 h -2.39743 -2.39742 l -5.59315,5.6 -5.59314,5.6 h -14.08771 -14.08772 l -4.40235,4.41079 -4.40235,4.41079 1.12664,1.09198 1.12663,1.09198 v 4.66137 4.66136 l -4.64,4.63173 -4.64,4.63172 v 6.08061 6.0806 l -5.11003,5.12353 -5.11004,5.12354 -0.649,3.36 c -0.31161,1.57063 -0.45817,3.64978 -0.97093,4.8 -0.67963,-1.21147 -0.70716,-3.4255 -0.97093,-4.79999 z m -4.13833,-19.02571 -3.53074,-3.53074 v 3.833 3.83299 l 3.44,3.45172 3.44,3.45171 0.0907,-3.75397 0.0907,-3.75397 z m 13.74926,0.31662 v -3.84 l -3.52,3.50909 -3.52,3.50908 v 3.84 3.84 l 3.52,-3.50908 3.52,-3.50909 z m 0.3979,-8.72877 8.8821,-8.87786 v -3.39255 -3.39254 l -0.65475,-0.59254 -0.65475,-0.59255 -8.30525,8.30064 -8.30525,8.30064 -8.30524,-8.30064 -8.30525,-8.30064 -0.65475,0.59255 -0.65476,0.59254 v 3.37369 3.37369 l 8.87455,8.89671 c 4.881,4.8932 8.94805,8.89672 9.03789,8.89672 0.0898,0 4.1603,-3.99504 9.04546,-8.87786 z m -1.92057,-11.83942 c 3.82947,-3.8265 6.96267,-7.10636 6.96267,-7.28858 0,-0.18222 -1.01189,-1.33545 -2.24865,-2.56273 -1.23675,-1.22728 -2.31489,-2.23141 -2.39585,-2.23141 -0.081,0 -2.23707,2.08613 -4.79135,4.63586 l -4.64415,4.63586 -4.564,-4.55586 c -2.5102,-2.50573 -4.71006,-4.55586 -4.88858,-4.55586 -0.17852,0 -1.32872,1.01189 -2.556,2.24865 -1.22728,1.23675 -2.19422,2.35275 -2.14875,2.48 0.0455,0.12724 3.21224,3.36335 7.03727,7.19135 3.82504,3.828 7.02664,6.96 7.11467,6.96 0.088,0 3.29326,-3.13078 7.12272,-6.95728 z m -3.43549,-10.96457 3.51092,-3.52184 -3.5941,-3.5941 -3.59411,-3.59411 -3.02577,3.0132 c -1.53087,1.5223 -2.80891,2.78514 -4.12927,4.21741 l 3.48979,3.50064 c 1.91938,1.92536 3.5667,3.50065 3.6607,3.50065 0.094,0 1.75083,-1.58483 3.68184,-3.52185 z m -17.94113,-0.92673 c 0.86939,-0.88917 1.51739,-1.68733 1.44,-1.7737 -0.0774,-0.0864 -3.15712,-3.18568 -6.84385,-6.88737 l -6.70314,-6.73035 H 109.39175 91.534886 v 0.245 c 0,0.13475 1.69416,1.93475 3.76481,4 l 3.76481,3.755 h 14.079194 14.0792 l 4.77285,4.78082 4.77286,4.78083 0.50314,-0.27677 c 0.27673,-0.15223 1.21446,-1.00428 2.08385,-1.89346 z m 35.85929,-2.59142 4.792,-4.8 h 14.0792 14.07919 l 3.76481,-3.755 c 2.07064,-2.06525 3.7648,-3.86525 3.7648,-4 v -0.245 l -17.84,0.002 -17.84,0.002 -6.63663,6.63832 c -3.65014,3.65107 -6.73791,6.75008 -6.8617,6.88668 l -0.22507,0.24837 1.89168,1.91163 c 1.04043,1.0514 1.97,1.91163 2.06571,1.91163 0.0957,0 2.33041,-2.16 4.96601,-4.8 z m -27.44429,-5.83556 4.24429,-4.23555 v -3.04959 -3.04959 l -7.75689,-7.754845 -7.7569,-7.75486 H 102.178 67.854886 v 0.23755 c 0,0.13065 3.41887,3.65865 7.5975,7.84 l 7.5975,7.602445 h 22.885174 22.88517 l 7.19466,7.2 c 3.95707,3.96 7.26594,7.2 7.35305,7.2 0.0871,0 2.0683,-1.906 4.40266,-4.23556 z m -10.95571,-10.48444 -6.07368,-6.079995 H 106.88468 83.028136 l -1.41325,-1.44 -1.41325,-1.44 h 26.069554 26.06956 l 6.48436,6.49015 6.48437,6.490155 -1.06253,1.02984 c -0.58439,0.56642 -1.12909,1.02985 -1.21045,1.02985 -0.0814,0 -2.88108,-2.736 -6.22161,-6.08 z m 34.49479,7.44 7.1428,-7.12 h 22.86371 22.8637 l 7.5975,-7.602445 c 4.17863,-4.18135 7.5975,-7.70935 7.5975,-7.84 v -0.23755 h -34.33476 -34.33475 l -7.74525,7.75993 -7.74524,7.759915 v 3.03578 3.03579 l 4.23667,4.2454 c 2.33016,2.33497 4.34436,4.2089 4.47599,4.16429 0.13163,-0.0446 3.45359,-3.28511 7.38213,-7.20111 z m -8.34595,-2.40899 -1.01672,-1.04898 6.4768,-6.471015 6.4768,-6.47101 h 26.06377 26.06377 l -1.41326,1.44 -1.41325,1.44 h -23.85653 -23.85653 l -6.07369,6.079995 c -3.34052,3.344 -6.15485,6.08 -6.25406,6.08 -0.0992,0 -0.63791,-0.47205 -1.1971,-1.04899 z m -2.23443,-14.865355 6.95973,-6.954341 -1.99061,-2.008467 -1.99061,-2.008468 -5.04646,5.039066 -5.04646,5.03906 -5.04342,-5.03603 -5.04342,-5.036032 -1.99684,1.996848 -1.99685,1.996845 6.95754,6.962939 c 3.82664,3.8296 7.02957,6.96293 7.1176,6.96293 0.088,0 3.29194,-3.12946 7.1198,-6.95435 z m 0.88491,-13.364968 7.83442,-7.839322 -1.67723,-1.677235 -1.67724,-1.677239 -6.23963,6.233479 -6.23964,6.233481 -6.23963,-6.233481 -6.23963,-6.233479 -1.67724,1.677239 -1.67724,1.677235 7.83442,7.839322 c 4.30894,4.311625 7.90863,7.839318 7.99932,7.839318 0.0907,0 3.69039,-3.527693 7.99932,-7.839318 z M 130.57489,52.669475 c 0,-0.088 0.072,-0.16 0.16,-0.16 0.088,0 0.16,0.072 0.16,0.16 0,0.088 -0.072,0.16 -0.16,0.16 -0.088,0 -0.16,-0.072 -0.16,-0.16 z"
       id="path3796"
       sodipodi:nodetypes="ccccccccccccccccccccccccccccssscccccccccsssccccccccccccccccccccccccccccccccccccccccccccccccscccccccccccccsssssssscsssssssscccccsssssscccsscccccssccccsscccsscssccscccccccsscccsssscccccccccsssscccsscccccccsssscccccccccsssscccccccccsssscccccccccssssssss" /></g></svg>
