<?xml version="1.0" encoding="UTF-8" standalone="no"?>
<!-- Created with Inkscape (http://www.inkscape.org/) -->

<svg
   width="210mm"
   height="297mm"
   viewBox="0 0 210 297"
   version="1.1"
   id="svg5"
   xmlns:inkscape="http://www.inkscape.org/namespaces/inkscape"
   xmlns:sodipodi="http://sodipodi.sourceforge.net/DTD/sodipodi-0.dtd"
   xmlns="http://www.w3.org/2000/svg"
   xmlns:svg="http://www.w3.org/2000/svg">
  <sodipodi:namedview
     id="namedview7"
     pagecolor="#ffffff"
     bordercolor="#000000"
     borderopacity="0.25"
     inkscape:showpageshadow="2"
     inkscape:pageopacity="0.0"
     inkscape:pagecheckerboard="0"
     inkscape:deskcolor="#d1d1d1"
     inkscape:document-units="mm"
     showgrid="false"
     inkscape:zoom="0.74564394"
     inkscape:cx="91.196342"
     inkscape:cy="544.49581"
     inkscape:window-width="1920"
     inkscape:window-height="1017"
     inkscape:window-x="-8"
     inkscape:window-y="-8"
     inkscape:window-maximized="1"
     inkscape:current-layer="layer1" />
  <defs
     id="defs2" />
  <g
     inkscape:label="Camada 1"
     inkscape:groupmode="layer"
     id="layer1">
    <g
       id="g14426"
       transform="translate(7.1293511,59.612903)">
      <g
         aria-label="@"
         id="text6832"
         style="font-size:80.3272px;font-family:'THE AMAZING SPIDER-MAN';-inkscape-font-specification:'THE AMAZING SPIDER-MAN, Normal';fill:#ff1200;stroke:#002e38;stroke-width:12.736;paint-order:stroke markers fill">
        <path
           d="m 59.023354,168.56188 q 0,-0.48196 0,-1.2049 0,-0.80328 0,-1.52622 0.08033,-0.80327 0.08033,-1.36556 0,-0.56229 0,-0.64262 0.08033,-2.57047 0.883599,-5.46225 0.803272,-2.89178 2.00818,-5.38192 2.650798,-5.78356 6.345849,-10.28189 3.695051,-4.57865 8.354029,-7.71141 4.658978,-3.21309 10.201555,-4.89996 5.542576,-1.68687 11.968753,-1.68687 0.481963,0 1.285231,0 0.80327,0 1.60655,0.0803 0.80327,0 1.36556,0 0.64262,0 0.72294,0 0.0803,0 0.56229,0.0803 0.56229,0.0803 1.20491,0.24098 0.72295,0.0803 1.44589,0.24098 0.72295,0.16065 1.20491,0.24098 3.29341,0.72295 6.10487,2.00818 2.89178,1.28524 5.70323,2.81145 0.0803,0.0803 0.56229,0.40164 0.48196,0.32131 0.64262,0.48196 6.02454,4.33767 10.12122,9.79992 4.09669,5.46225 6.10487,12.53104 0.8836,2.97211 1.04425,5.54258 0.24099,2.57047 0.24099,5.70323 v 5.46225 q -0.0803,2.32949 -0.8836,4.81963 -0.80328,2.40982 -1.60655,4.49833 -1.60654,4.41799 -4.33767,8.2737 -2.65079,3.77538 -6.10486,6.82781 -3.37375,3.05244 -7.47043,5.3016 -4.01636,2.24916 -8.43436,3.61472 -2.73112,0.8836 -5.46225,1.12458 -2.73112,0.16066 -5.622901,0.16066 -6.426177,0 -12.049081,-1.68687 -5.542577,-1.68688 -10.201554,-4.81964 -4.578651,-3.21308 -8.273702,-7.71141 -3.695051,-4.57865 -6.345849,-10.36221 -1.847526,-3.61472 -2.409816,-7.47043 -0.562291,-3.93603 -0.562291,-8.03272 z m 33.737425,35.82594 q 0,0.0803 0.08033,0.16065 0.08033,0.16065 0.642618,0.32131 0.642618,0.0803 0.963926,0.0803 h 9.398277 q 0.16066,0 0.56229,-0.0803 0.48197,-0.16066 0.64262,-0.32131 v -0.16065 -0.24099 q -0.0803,-0.32131 -0.24098,-0.96392 -0.0803,-0.64262 -0.24098,-1.36557 -0.0803,-0.72294 -0.24098,-1.36556 -0.0803,-0.64262 -0.0803,-0.8836 -0.0803,-0.32131 -0.24098,-0.8836 -0.16066,-0.64261 -0.16066,-0.72294 -0.24098,-0.24098 -1.04425,-0.40164 -0.72295,-0.16065 -1.68687,-0.24098 -0.8836,-0.0803 -1.68687,-0.0803 -0.803272,-0.0803 -1.124581,-0.0803 -0.481963,0 -1.285235,0.0803 -0.722945,0 -1.44589,0.16066 -0.722945,0.0803 -1.285235,0.48196 -0.56229,0.32131 -0.642618,0.8836 -0.08033,0.24098 -0.240981,0.8836 -0.08033,0.64262 -0.240982,1.36556 -0.08033,0.72295 -0.240981,1.36557 -0.08033,0.64261 -0.08033,0.88359 0,0.0803 -0.08033,0.40164 0,0.24098 0,0.40164 z m -12.129407,-4.418 q -0.08033,0.0803 0.08033,0.24098 0.160654,0.0803 0.321309,0.16066 0.321309,0.24098 0.883599,0.56229 0.642618,0.3213 1.285235,0.64261 0.642618,0.32131 1.124581,0.56229 0.56229,0.24099 0.722945,0.32131 0.240981,0.0803 0.883599,0.32131 0.642618,0.24098 1.44589,0.48196 0.803272,0.24099 1.526217,0.56229 0.722944,0.24099 1.12458,0.32131 0.08033,0.0803 0.160655,0.0803 h 0.240981 q 0.321309,0 0.481964,-0.0803 0.240981,-0.0803 0.401636,-0.48196 0,-0.24098 0.08033,-0.8836 0.160654,-0.64262 0.240981,-1.36556 0.08033,-0.72295 0.160655,-1.36556 0.160654,-0.64262 0.160654,-0.8836 v -0.8836 -1.12458 q -1.365562,-0.80328 -3.454069,-1.7672 -2.008181,-0.96393 -3.855706,-0.96393 -0.08033,0 -0.401636,0.16066 -0.240982,0.16065 -0.321309,0.24098 z m 24.821108,-2.32949 q 0,0.24098 0.0803,0.96393 0.16066,0.64261 0.32131,1.44589 0.16066,0.80327 0.24098,1.52621 0.16066,0.64262 0.24099,0.8836 0.0803,0.40164 0.0803,1.04426 0.0803,0.64261 0.16066,0.64261 0.0803,0.0803 0.16065,0.0803 h 0.32131 q 1.20491,0 2.49014,-0.40164 1.36557,-0.40163 2.57047,-0.96392 1.28524,-0.56229 2.49015,-1.20491 1.20491,-0.72294 2.24916,-1.28523 0.0803,-0.0803 0.24098,-0.16066 0.16066,-0.16065 0.16066,-0.24098 l -0.16066,-0.32131 q -0.0803,-0.16065 -0.16065,-0.24098 -0.0803,-0.0803 -0.0803,-0.24098 -0.16065,-0.24098 -0.56229,-0.80327 -0.40164,-0.64262 -0.80327,-1.28524 -0.40164,-0.72295 -0.80327,-1.20491 -0.32131,-0.56229 -0.40164,-0.72294 -0.24098,-0.40164 -0.48196,-0.32131 -0.16066,0 -0.56229,0 -0.72295,0 -1.92786,0.24098 -1.20491,0.16065 -2.40981,0.56229 -1.12458,0.32131 -2.16884,0.8836 -0.96392,0.48196 -1.28523,1.12458 z m 10.12122,-3.69505 q 0,0.0803 0.16066,0.40163 0.16065,0.32131 0.24098,0.48197 0.24098,0.32131 0.56229,0.96392 0.40164,0.56229 0.72295,1.20491 0.40163,0.64262 0.72294,1.20491 0.32131,0.48196 0.40164,0.56229 0,0.0803 0.16065,0.24098 0.24098,0.16066 0.32131,0.16066 2.49014,-1.52622 4.418,-3.45407 2.00818,-1.92786 4.09668,-4.25734 v -0.16066 q 0,-0.24098 -0.56229,-0.80327 -0.56229,-0.64262 -1.36556,-1.20491 -0.72294,-0.64262 -1.52622,-1.04425 -0.72294,-0.48197 -1.04425,-0.48197 h -0.40164 q -0.0803,0.0803 -0.48196,0.32131 -0.32131,0.16066 -0.72294,0.40164 -0.40164,0.16065 -0.80328,0.40164 -0.3213,0.16065 -0.40163,0.16065 -1.84753,0.8836 -2.73113,1.68687 -0.8836,0.72295 -1.7672,2.73113 v 0.24098 z m -44.66192,-2.08851 q 0.240982,0.32131 0.8836,1.04426 0.722944,0.72294 1.445889,1.52621 0.803272,0.72295 1.526217,1.44589 0.722945,0.64262 1.044254,0.8836 0.160654,0.16066 0.56229,0.56229 0.401636,0.32131 0.883599,0.72295 0.481963,0.32131 0.963927,0.56229 0.481963,0.24098 0.803272,0.24098 0.08033,0 0.160654,0 0.160655,-0.0803 0.240982,-0.0803 0.803272,-1.12458 1.767198,-2.49014 0.963927,-1.36556 1.526217,-2.81145 v -0.16066 -0.24098 q -0.08033,-0.0803 -0.240982,-0.32131 -0.08033,-0.32131 -0.160654,-0.48196 -0.240982,-0.16066 -0.722945,-0.80327 -0.401636,-0.64262 -0.56229,-0.80328 -0.240982,-0.16065 -0.883599,-0.80327 -0.562291,-0.64262 -0.722945,-0.80327 -0.160655,-0.0803 -0.642618,-0.16065 -0.481963,-0.16066 -0.56229,-0.24099 -0.160655,0 -0.481964,-0.16065 -0.321308,-0.24098 -0.722944,-0.40164 -0.401636,-0.24098 -0.803272,-0.40163 -0.321309,-0.24098 -0.401636,-0.32131 h -0.240982 -0.160654 q -0.160655,0.16065 -0.642618,0.64262 -0.481963,0.40163 -1.044254,0.8836 -0.56229,0.48196 -1.044253,0.88359 -0.401636,0.40164 -0.562291,0.56229 -0.240981,0.16066 -0.722944,0.64262 -0.401636,0.40164 -0.481964,0.48197 -0.08033,0 -0.08033,0.0803 v 0.16066 z m 26.026014,-3.61472 q -1.285235,0.16065 -1.44589,0.56229 -0.08033,0.40163 -0.240982,1.52621 -0.08033,0.32131 -0.240981,1.04426 -0.08033,0.64262 -0.240982,1.36556 -0.08033,0.72295 -0.240981,1.36556 -0.08033,0.56229 -0.08033,0.72295 -0.08033,0.16065 -0.08033,0.56229 0,0.40163 0,0.56229 h 9.157292 q 0,-0.48196 -0.16065,-1.68687 -0.0803,-1.28524 -0.32131,-2.57047 -0.24098,-1.36557 -0.64262,-2.40982 -0.40163,-1.04425 -1.04425,-1.04425 h -2.329484 z m -11.567117,4.25734 q 0,0.16065 0.963926,0.56229 0.963927,0.40164 2.168835,0.8836 1.285235,0.48196 2.409816,0.96393 1.12458,0.48196 1.445889,0.64261 0.08033,-0.0803 0.240982,-0.32131 0.160654,-0.3213 0.240981,-0.40163 0.321309,-1.36556 0.562291,-2.57047 0.240981,-1.20491 0.240981,-2.40982 0,-0.8836 -0.963926,-1.84752 -0.883599,-0.96393 -1.606544,-0.96393 h -0.160654 q -2.168835,0.8836 -3.293416,2.08851 -1.044253,1.12458 -2.168834,3.13276 -0.08033,0 -0.08033,0.0803 z m 18.796563,-2.40982 q 0,0.16066 0.0803,0.24098 0,0.24099 0.0803,0.96393 0.16065,0.64262 0.24098,1.44589 0.16065,0.80327 0.24098,1.52622 0.16065,0.64262 0.24098,0.8836 0.0803,0.0803 0.16066,0.0803 h 0.24098 q 0.0803,0 0.24098,0 0.16065,-0.0803 0.24098,-0.0803 1.60654,-0.40164 3.29342,-1.12458 1.68687,-0.80328 3.61472,-0.96393 v -0.40164 q 0,-0.72294 -0.40164,-1.2049 -0.40163,-0.48197 -0.96392,-1.12459 -0.24098,-0.24098 -0.48197,-0.72294 -0.16065,-0.24098 -0.3213,-0.56229 -0.16066,-0.0803 -0.72295,-0.40164 -0.48196,-0.32131 -1.12458,-0.64261 -0.56229,-0.32131 -1.12458,-0.56229 -0.48196,-0.32131 -0.72295,-0.40164 h -0.24098 q -0.32131,0 -0.80327,0.32131 -0.40164,0.24098 -0.80327,0.64262 -0.40164,0.3213 -0.72295,0.80327 -0.24098,0.48196 -0.24098,0.80327 z m -21.527688,-0.64261 q 0,0.64261 0.401636,1.2049 0.481963,0.48197 0.883599,0.80328 0.401636,-0.32131 0.803272,-0.80328 0.401636,-0.56229 0.401636,-1.2049 z m 30.604668,0.48196 q 0.16065,0.40163 0.48196,1.04425 0.32131,0.56229 0.72294,0.56229 h 0.16066 q 0.0803,0 0.0803,-0.0803 0.16065,-0.16066 0.48196,-0.56229 0.32131,-0.40164 0.40163,-0.5623 -0.16065,-0.40163 -0.72294,-0.40163 -0.56229,0 -0.72295,0 z m -48.838943,-10.0409 q 0,0.64262 0.642618,2.32949 0.642617,1.68687 1.526216,3.45407 0.963927,1.68687 1.847526,3.05243 0.963926,1.28524 1.44589,1.28524 0.08033,0 0.08033,0 0,-0.0803 0.08033,-0.0803 1.124581,-0.8836 2.088507,-1.7672 1.044254,-0.96393 2.088508,-1.92785 -3.45407,-3.69505 -5.381923,-8.19338 h -0.240982 q -0.240981,0 -0.963926,0.16066 -0.642618,0.16065 -1.365562,0.48196 -0.722945,0.24098 -1.285236,0.56229 -0.56229,0.32131 -0.56229,0.64262 z m 60.165073,6.34585 q 0.64262,0.80327 1.68687,1.7672 1.04426,0.8836 2.00818,1.44589 l 0.16066,0.0803 q 0.48196,0 1.28523,-1.28523 0.8836,-1.28524 1.68687,-2.97211 0.8836,-1.68687 1.44589,-3.29341 0.64262,-1.60655 0.64262,-2.32949 v -0.72295 q -0.96393,-0.40163 -1.60654,-0.64262 -0.64262,-0.24098 -1.52622,-0.24098 h -0.56229 q -1.92785,4.33767 -5.22127,8.19338 z m -31.729244,0 q 0.160655,0.16065 0.562291,0.48196 0.481963,0.24098 0.642617,0.32131 0.562291,-0.72295 0.642618,-1.7672 0.160654,-1.04425 0.160654,-1.92785 v -0.72295 l -2.00818,3.21309 q -0.08033,0 -0.08033,0.0803 v 0.16065 z m 4.096688,-4.418 q 0,0 -0.160655,0.48196 -0.08033,0.48197 -0.240981,1.12459 -0.08033,0.64261 -0.240982,1.28523 -0.08033,0.64262 -0.160654,1.12458 -0.08033,0.16066 -0.08033,0.48196 0,0.24099 0,0.32131 h 5.783558 q 0,-0.24098 -0.0803,-1.12458 -0.0803,-0.8836 -0.24099,-1.7672 -0.16065,-0.96392 -0.40163,-1.68687 -0.24098,-0.72294 -0.56229,-0.72294 h -3.213093 z m 6.024536,0.80327 q 0,0.24099 0,0.96393 0.0803,0.64262 0.16066,1.36556 0.16065,0.72295 0.32131,1.28524 0.24098,0.48196 0.56229,0.48196 1.04425,0 1.04425,-0.80327 v -0.56229 q -0.0803,-0.0803 -0.40163,-0.56229 -0.32131,-0.56229 -0.40164,-0.72295 -0.16066,-0.24098 -0.64262,-1.04425 -0.48196,-0.8836 -0.64262,-1.20491 z m 2.00818,-9.55893 q 0,0.0803 0.0803,0.16065 0.0803,0.32131 0.40164,1.28524 0.32131,0.96392 0.48196,1.2049 0.72295,1.60655 1.60654,3.21309 0.8836,1.60655 2.08851,2.89178 1.20491,1.28524 2.73113,2.08851 1.52621,0.72294 3.61472,0.72294 0.8836,0 1.92785,-0.16065 1.12458,-0.16066 1.7672,-0.80327 3.37374,-3.05244 5.14094,-6.50651 1.7672,-3.45407 1.7672,-8.19337 0,-3.29342 -0.80327,-6.34585 -0.72295,-3.05243 -2.08851,-6.02454 -0.16065,-0.32131 -0.48196,-0.96393 -0.32131,-0.72294 -0.32131,-0.80327 h -0.40164 q -0.48196,0 -1.44589,0.48196 -0.96392,0.48197 -2.0885,1.20491 -1.04426,0.64262 -2.00818,1.36557 -0.96393,0.72294 -1.36557,1.12458 -3.21308,3.05243 -6.10486,6.18519 -2.81145,3.05243 -4.418,7.14912 -0.0803,0.0803 -0.0803,0.16066 v 0.3213 z m -32.934149,-4.33767 q 0,4.81963 1.44589,8.19337 1.526217,3.29342 5.140941,6.42618 0.642617,0.56229 1.686871,0.72294 1.124581,0.0803 2.00818,0.0803 1.927853,0 3.45407,-0.72294 1.606544,-0.72295 2.811452,-1.92786 1.285235,-1.20491 2.168834,-2.6508 0.963927,-1.52621 1.606544,-3.13276 0.481963,-1.04425 0.642618,-1.60654 0.240981,-0.64262 0.240981,-1.52622 v -0.56229 q -2.088507,-4.81963 -5.462249,-8.59501 -3.293416,-3.77538 -7.550757,-6.82781 -0.883599,-0.72294 -2.00818,-1.44589 -1.044254,-0.72294 -2.088508,-0.72294 H 75.81174 q -2.00818,3.53439 -2.89178,6.98846 -0.883599,3.45407 -0.883599,7.30978 z m 28.596489,10.9245 q 0,-0.32131 -0.0803,-1.20491 -0.0803,-0.8836 -0.24098,-1.7672 -0.16066,-0.8836 -0.481967,-1.52622 -0.240982,-0.72294 -0.642618,-0.72294 -0.240981,0 -0.642617,0 -0.321309,0 -0.401636,0.40163 l -0.883599,4.81964 z M 62.557751,167.11599 q 0,2.49015 0.160655,5.3016 0.160654,2.73112 0.803272,5.22127 0.160654,0.0803 0.240981,0.0803 h 0.240982 q 0.08033,0 0.160654,0 0.160655,-0.0803 0.240982,-0.0803 0.160654,-0.0803 0.642618,-0.24098 0.56229,-0.16066 1.12458,-0.32131 0.642618,-0.24099 1.124581,-0.40164 0.562291,-0.24098 0.803272,-0.32131 v -0.48196 q 0,-1.36556 -0.321309,-2.97211 -0.321308,-1.68687 -0.481963,-2.9721 -0.08033,-0.24099 -0.240981,-1.12459 -0.160655,-0.96392 -0.240982,-1.28523 -0.963926,-0.16065 -2.088507,-0.24098 -1.124581,-0.16066 -2.168835,-0.16066 z m 67.956809,8.27371 q 0,0.3213 0,0.56229 0.0803,0.24098 0.48197,0.40163 0.32131,0.16066 1.20491,0.48196 0.96392,0.32131 1.28523,0.40164 0.0803,0.0803 0.16065,0.0803 h 0.24099 0.24098 q 0.0803,0 0.16065,-0.0803 0.16066,-0.16065 0.24098,-0.48196 0.0803,-0.16066 0.0803,-0.40164 0.0803,-0.24098 0.16066,-0.40163 0.0803,-0.16066 0.24098,-0.96393 0.16065,-0.80327 0.16065,-0.96393 0,-0.40163 0,-1.44589 0.0803,-1.04425 0.0803,-2.16883 0,-1.20491 0,-2.24916 0.0803,-1.04426 0.0803,-1.44589 -0.40164,0 -1.04426,0 -0.56229,0 -1.20491,0.0803 -0.56229,0.0803 -1.04425,0.24099 -0.48196,0.16065 -0.56229,0.48196 -0.16065,1.84753 -0.56229,3.93603 -0.40164,2.00818 -0.40164,3.93604 z m -33.17513,-2.57048 q 0,0.0803 0.401636,0.24099 0.481963,0.16065 0.803272,0.16065 0.240981,0.0803 0.481963,0.0803 h 0.722945 q 0.240981,0 0.642614,0 0.48197,-0.0803 0.56229,-0.0803 0.0803,0 0.24099,-0.0803 0.16065,-0.16065 0.16065,-0.32131 v -4.49832 q 0.16065,0 0.64262,0.32131 0.48196,0.24098 0.64262,0.0803 0.0803,0 0.3213,-0.56229 0.32131,-0.64262 0.48197,-1.04426 v -0.16065 -0.24098 q -0.16066,0 -0.32131,-0.16066 -0.0803,-0.16065 -0.16066,-0.24098 -0.8836,-0.64262 -1.84752,-1.12458 -0.96393,-0.56229 -2.088509,-0.56229 -0.642618,0 -1.606544,0.32131 -0.883599,0.32131 -1.285235,0.96393 -0.240982,0.24098 -0.562291,0.72294 l -0.321309,0.48196 q 0,0.24099 0.321309,0.8836 0.321309,0.56229 0.562291,0.72295 0.160654,0.16065 0.56229,-0.0803 0.481963,-0.32131 0.642618,-0.32131 z m -34.621024,-7.30977 q 0.321309,0.0803 1.365562,0.24098 1.124581,0.16066 1.526217,0.16066 0.08033,0 0.321309,0.0803 0.240981,0 0.401636,0 h 0.240981 q 0.08033,0 0.240982,-0.0803 0.160654,-0.32131 0.240982,-0.64262 0.08033,-0.24098 0.08033,-0.56229 0.08033,-0.32131 0.160654,-0.48197 0,-0.0803 0,-0.48196 0.08033,-0.48196 0.160655,-0.96393 0.08033,-0.48196 0.160654,-0.88359 0.08033,-0.40164 0.08033,-0.5623 0,-0.0803 0.08033,-0.72294 0.160655,-0.64262 0.321309,-1.36556 0.160655,-0.80327 0.240982,-1.44589 0.160654,-0.72295 0.160654,-0.8836 v -0.56229 q 0,-1.04426 -0.803272,-1.36556 -0.803272,-0.32131 -1.686871,-0.56229 h -0.401636 -0.481963 q -0.883599,2.40981 -1.686871,5.06061 -0.722945,2.57047 -0.722945,5.14094 z m 67.073214,-9.31796 q 0.96393,4.49833 1.68687,9.31796 h 0.40164 0.40163 q 0.96393,-0.16065 1.92786,-0.16065 0.96392,-0.0803 0.96392,-1.28524 0,-0.48196 -0.24098,-1.84753 -0.16065,-1.44589 -0.56229,-2.9721 -0.32131,-1.60655 -0.8836,-2.81145 -0.56229,-1.20491 -1.20491,-1.20491 -1.28523,0 -2.49014,0.96392 z m -39.36033,4.09669 q 0.08033,0.16066 0.401636,0.56229 0.321309,0.32131 0.481964,0.48196 0.08033,0.24099 0.401636,0.72295 0.401636,0.48196 0.722944,1.04425 0.401636,0.48197 0.722945,0.96393 0.321309,0.40164 0.481963,0.56229 0.08033,0.0803 0.160655,0.24098 0.160654,0.16066 0.240981,0.16066 l 0.160655,0.0803 h 0.160654 q 0.08033,0 0.08033,-0.0803 0.240982,-0.16066 0.642618,-0.56229 0.481963,-0.48197 0.562291,-0.64262 l -0.160655,-0.48196 q -0.08033,-0.16066 -0.160654,-0.32131 -0.08033,-0.24099 -0.08033,-0.40164 -0.160654,-0.32131 -0.401636,-0.96393 -0.240981,-0.64261 -0.56229,-1.28523 -0.240982,-0.72295 -0.481963,-1.20491 -0.160655,-0.48196 -0.160655,-0.64262 -0.08033,-0.0803 -0.240981,-0.24098 -0.08033,-0.16065 -0.160655,-0.16065 -0.803272,0 -1.606544,0.80327 -0.722944,0.80327 -1.204909,1.36556 z m 12.45072,3.77538 q 0,0.0803 0.0803,0.16065 0.0803,0.16066 0.56229,0.48197 0.56229,0.24098 0.72295,0.32131 l 0.16065,0.0803 h 0.16066 q 0.0803,0 0.0803,-0.0803 l 0.40163,-0.40164 q 0.24098,-0.24098 0.64262,-0.80327 0.40163,-0.56229 0.8836,-1.12458 0.48196,-0.64262 0.80327,-1.12458 0.40164,-0.48197 0.48196,-0.56229 0.0803,-0.16066 0.24098,-0.40164 0.16066,-0.24098 0.16066,-0.32131 l -0.32131,-0.32131 -0.56229,-0.56229 q -0.24098,-0.16065 -0.80327,-0.64262 -0.48197,-0.48196 -0.64262,-0.64261 h -0.32131 -0.16065 q -0.16066,0.16065 -0.48197,0.8836 -0.24098,0.64261 -0.3213,0.80327 -0.16066,0.32131 -0.40164,0.96392 -0.24098,0.56229 -0.56229,1.20491 -0.24098,0.56229 -0.48196,1.12458 -0.16066,0.56229 -0.24099,0.72295 -0.0803,0 -0.0803,0.0803 z m -2.73113,-1.04425 q 0,0.40163 0.32131,0.48196 0.32131,0 0.48196,0 0.48197,0 0.48197,-0.16065 0.0803,-0.16066 0.32131,-0.72295 0.0803,-0.32131 0.40163,-0.96393 0.32131,-0.72294 0.64262,-1.52621 0.32131,-0.80328 0.56229,-1.44589 0.32131,-0.72295 0.48196,-0.96393 v -0.16065 q 0,-0.24099 -0.48196,-0.40164 -0.48196,-0.24098 -1.12458,-0.32131 -0.64262,-0.16065 -1.28524,-0.24098 -0.56229,-0.0803 -0.80327,-0.0803 z m -5.301594,-5.70324 q 0,0.0803 0.08033,0.5623 0.160654,0.40163 0.321308,0.64261 0.08033,0.40164 0.321309,1.04426 0.321309,0.64261 0.562291,1.28523 0.321309,0.64262 0.481963,1.20491 0.240982,0.48196 0.321309,0.56229 0.160654,0.48196 0.642617,0.56229 0.562291,0 0.963927,0 v -6.58683 q -0.321309,0 -0.963927,0.0803 -0.642617,0 -1.285235,0.0803 -0.56229,0 -1.044254,0.16066 -0.401636,0.16065 -0.401636,0.40163 z m -9.398282,-3.29341 q 0,0.24098 0.481963,0.96393 0.56229,0.72294 1.204908,1.52621 0.722945,0.80327 1.285235,1.44589 0.642618,0.64262 0.8836,0.64262 h 0.160654 q 0.08033,0 0.160654,-0.0803 0.08033,0 0.401636,-0.16065 0.321309,-0.24098 0.642618,-0.48196 0.401636,-0.32131 0.722945,-0.5623 0.401636,-0.24098 0.56229,-0.40163 0.321309,-0.16066 0.321309,-0.24098 0.08033,-0.0803 0.08033,-0.40164 0,-1.44589 -0.642617,-2.89178 -0.642618,-1.44589 -1.285236,-2.57047 -0.160654,0.0803 -0.481963,0.24098 -0.240981,0.0803 -0.321309,0.16066 -0.240981,0.16065 -0.803272,0.56229 -0.481963,0.32131 -1.12458,0.72294 -0.562291,0.40164 -1.124581,0.80327 -0.481964,0.32131 -0.722945,0.40164 -0.08033,0.0803 -0.160655,0.0803 0,0 -0.08033,0.0803 z m 20.804746,2.24916 q 0,0.24098 0.40164,0.64262 0.40163,0.40163 0.88359,0.80327 0.56229,0.32131 1.12459,0.64262 0.56229,0.24098 0.88359,0.24098 0.0803,0 0.16066,0 0.16065,-0.0803 0.24098,-0.0803 0.80327,-0.8836 1.84753,-2.0885 1.04425,-1.28524 1.84752,-2.40982 -0.0803,-0.0803 -0.24098,-0.16065 -0.0803,-0.0803 -0.16065,-0.16066 -0.0803,0 -0.40164,-0.16065 -0.32131,-0.16066 -0.72295,-0.32131 -0.3213,-0.24098 -0.64261,-0.40164 -0.32131,-0.24098 -0.40164,-0.32131 -0.0803,-0.0803 -0.48196,-0.32131 -0.32131,-0.24098 -0.72295,-0.48196 -0.40163,-0.32131 -0.80327,-0.56229 -0.32131,-0.24098 -0.40163,-0.32131 h -0.24099 -0.16065 l -1.92785,4.81963 q 0,0.16066 -0.0803,0.32131 0,0.16066 0,0.32131 z m -14.298243,-5.86388 q 0,0.16065 0.240982,0.72294 0.240981,0.48196 0.481963,1.20491 0.240982,0.64262 0.481963,1.28523 0.321309,0.56229 0.481963,0.80328 0.321309,0.72294 0.321309,0.80327 0.08033,0.0803 0.722945,0.0803 0.240982,0 0.883599,-0.0803 0.642618,-0.0803 1.285236,-0.16066 0.722944,-0.16065 1.204908,-0.32131 0.481963,-0.16065 0.481963,-0.3213 v -5.3016 q -0.160655,0 -0.642618,0.0803 -0.401636,0 -0.56229,0 -0.321309,0 -1.124581,0.16065 -0.722945,0.0803 -1.606544,0.24098 -0.803272,0.0803 -1.606544,0.24099 -0.722945,0.0803 -1.044254,0.16065 v 0.24098 z m 8.595013,-1.60655 q -0.16066,0 -0.32131,0.16066 -0.0803,0.16065 -0.0803,0.24098 v 4.81963 q 0,0.32131 0.48197,0.56229 0.48196,0.24098 1.12458,0.40164 0.64261,0.16065 1.2049,0.24098 0.56229,0.0803 0.80328,0.0803 1.2049,0 1.68687,-1.28523 0.48196,-1.28524 0.8836,-2.32949 0.0803,-0.24098 0.0803,-0.64262 0.0803,-0.48196 0.16066,-0.64261 v -0.16066 -0.24098 q -0.24098,0 -0.8836,-0.0803 -0.56229,-0.16065 -1.28524,-0.24098 -0.72294,-0.16065 -1.36556,-0.24098 -0.64262,-0.16066 -0.8836,-0.24098 -0.16065,0 -0.80327,-0.16066 -0.64262,-0.24098 -0.80327,-0.24098 z m 24.01783,-3.29341 q 0.0803,0.16065 0.40164,0.64261 0.40163,0.48197 0.48196,0.56229 0.16065,0.40164 0.48196,1.12459 0.40164,0.64261 0.80328,1.28523 0.40163,0.64262 0.64261,1.12458 0.32131,0.48196 0.40164,0.56229 0.0803,0.16066 0.24098,0.56229 0.16066,0.40164 0.40164,0.8836 0.24098,0.48196 0.40163,0.96393 0.16066,0.40163 0.24098,0.48196 0,0.0803 0.16066,0.40164 l 0.16065,0.32131 q 0.0803,0 0.48197,-0.0803 0.48196,-0.0803 0.8836,-0.24098 0.40163,-0.24098 0.72294,-0.48197 0.40164,-0.24098 0.40164,-0.48196 v -0.16065 q -1.12458,-2.57047 -2.6508,-4.89996 -1.44589,-2.32949 -3.45407,-4.09669 -0.16066,0.16065 -0.64262,0.64262 -0.40163,0.40163 -0.56229,0.56229 -0.0803,0 -0.0803,0.0803 -0.0803,0.0803 -0.0803,0.16066 z m -58.23722,7.14912 q 0,0.24098 0.321309,0.48196 0.321308,0.16065 0.722944,0.32131 0.401636,0.0803 0.803272,0.16065 0.401636,0.0803 0.642618,0.0803 h 0.401636 q 0.963927,-2.16883 2.249162,-4.418 1.365562,-2.24916 2.731125,-4.09668 V 144.785 q 0,-0.56229 -0.401636,-0.8836 -0.321309,-0.40163 -0.963927,-0.80327 -1.365562,1.20491 -2.329489,2.57047 -0.963926,1.28524 -2.00818,2.73113 -0.401636,0.64261 -1.285235,1.92785 -0.883599,1.28523 -0.883599,2.32949 z m 13.093334,-5.06062 q 0.160654,0.24099 0.642617,0.80328 0.481964,0.48196 0.963927,1.04425 0.56229,0.56229 0.963926,1.12458 0.481963,0.48196 0.722945,0.64262 0.160654,0.24098 0.642618,0.72294 0.481963,0.48197 0.56229,0.56229 l 0.08033,0.0803 q 0,0.0803 0.08033,0.0803 0,0 0.160655,-0.0803 0.08033,0 0.08033,-0.0803 0.240982,-0.16065 1.204908,-0.64261 0.963926,-0.48197 1.285235,-0.64262 0.160655,-0.16066 1.044254,-0.72295 0.883599,-0.64261 1.285235,-0.8836 0.401636,-0.24098 0.401636,-0.32131 0.08033,-0.0803 0.08033,-0.48196 v -0.40163 l -2.409816,-6.1852 h -0.401636 q -1.927853,1.68687 -3.695051,2.97211 -1.686871,1.20491 -3.695051,2.40981 z m 30.042376,1.04426 q 0,0.56229 0.64261,1.28523 0.64262,0.64262 1.52622,1.28524 0.8836,0.56229 1.68687,1.04425 0.8836,0.40164 1.36557,0.40164 0.0803,0 0.16065,-0.0803 0.16065,-0.0803 0.24098,-0.0803 0.24098,-0.24098 0.80327,-0.80327 0.64262,-0.56229 1.28524,-1.20491 0.72294,-0.64261 1.28523,-1.20491 0.56229,-0.64261 0.80328,-0.88359 0.0803,-0.0803 0.24098,-0.32131 0.16065,-0.32131 0.16065,-0.48197 -0.0803,-0.16065 -0.16065,-0.24098 -0.24098,-0.24098 -0.24098,-0.24098 -1.60655,-1.12458 -3.13277,-2.08851 -1.52621,-0.96392 -2.89177,-2.40981 l -0.80328,-0.80328 h -0.24098 q -0.24098,0 -0.72294,0.8836 -0.40164,0.80328 -0.8836,2.00818 -0.48197,1.12459 -0.80327,2.24917 -0.32131,1.12458 -0.32131,1.68687 z m -20.724421,-6.82782 q 0,0.16066 0.160655,0.64262 0.160654,0.40164 0.240981,0.64262 0.08033,0.24098 0.321309,0.8836 0.240982,0.56229 0.481963,1.20491 0.321309,0.64262 0.562291,1.20491 0.240981,0.48196 0.401636,0.72294 0.240981,0.64262 0.401636,0.96393 0.160654,0.32131 0.803272,0.32131 0.08033,0 1.044253,-0.0803 1.044254,-0.0803 2.249162,-0.24098 1.204908,-0.24098 2.168834,-0.56229 0.963927,-0.32131 0.963927,-0.80328 v -7.30977 h -0.401636 q -0.160655,0.0803 -0.883599,0.32131 -0.642618,0.16065 -1.44589,0.40163 -0.722945,0.16066 -1.365563,0.40164 -0.642617,0.16065 -0.803272,0.16065 -0.160654,0 -0.642617,0.0803 -0.401636,0.0803 -0.963927,0.16066 -0.481963,0.0803 -0.963926,0.16065 -0.481963,0 -0.642618,0 -0.160654,0.0803 -0.883599,0.24098 -0.642617,0.0803 -0.803272,0.16066 v 0.24098 z m 11.406461,4.89996 q 0,0.0803 0.56229,0.40164 0.64262,0.32131 1.04426,0.48196 1.04425,0.40164 1.76719,0.48197 0.80328,0 1.92786,0 0.32131,0 0.96392,0 0.72295,-0.0803 0.96393,-0.0803 0.0803,0 0.24098,-0.16065 0.16066,-0.16066 0.24098,-0.24099 0,-0.0803 0.24098,-0.56229 0.24099,-0.56229 0.48197,-1.2049 0.24098,-0.64262 0.48196,-1.20491 0.32131,-0.64262 0.48196,-1.04426 0.24099,-0.72294 0.32131,-0.96392 0.0803,-0.24098 0.0803,-0.80328 v -0.3213 q -1.12458,0 -2.00818,-0.0803 -0.80327,-0.16066 -1.60654,-0.32131 -0.72295,-0.24098 -1.52622,-0.48196 -0.80327,-0.32131 -1.84753,-0.72295 -0.72294,-0.32131 -1.44589,-0.56229 -0.64261,-0.32131 -1.36556,-0.32131 z m -21.126052,-0.80327 q 0,0.0803 0.56229,-0.16065 0.642618,-0.32131 1.044254,-0.56229 1.606544,-0.8836 2.811452,-2.24916 1.285235,-1.36557 2.409816,-2.6508 v -0.40164 q 0,-0.32131 -0.240982,-1.04425 -0.160654,-0.80327 -0.481963,-1.52622 -0.240982,-0.80327 -0.642618,-1.36556 -0.321308,-0.56229 -0.56229,-0.56229 h -0.321309 q -2.731125,1.12458 -5.221268,2.81145 -2.409816,1.60654 -4.177014,3.61472 0.160654,0.16066 0.56229,0.64262 0.481963,0.48197 0.642618,0.64262 l 0.160654,0.16065 q 0,0 0.160654,-0.0803 0.08033,0 0.08033,-0.0803 l 2.811452,-2.81145 v 5.22127 z m 33.817752,-6.02454 q 0.16065,0.24098 0.64262,0.80327 0.56229,0.48197 1.12458,1.04426 0.56229,0.56229 1.04425,1.12458 0.56229,0.48196 0.80327,0.72294 0.0803,0.16066 0.96393,0.80328 0.8836,0.56229 1.44589,0.80327 0.56229,0.40163 1.20491,0.40163 v -4.89996 l 3.21309,2.89178 0.16065,0.0803 h 0.16065 q 0.0803,0 0.0803,-0.0803 0.16066,-0.0803 0.40164,-0.40163 0.32131,-0.40164 0.48196,-0.56229 -1.92785,-2.00818 -4.33767,-3.85571 -2.32949,-1.84752 -5.14094,-2.97211 h -0.48196 q -0.32131,0 -0.64262,0.5623 -0.24098,0.48196 -0.48196,1.2049 -0.24098,0.64262 -0.40164,1.36557 -0.16065,0.64261 -0.24098,0.96392 z m -12.6917,-3.21309 q 0,0.24099 0.40164,0.40164 2.00818,1.12458 4.17701,2.00818 2.24916,0.8836 4.57865,0.8836 0.16066,0 0.64262,0 0.56229,-0.0803 0.72295,-0.0803 0.0803,0 0.16065,-0.16065 0.16065,-0.24098 0.24098,-0.32131 0.0803,-0.24098 0.32131,-0.80327 0.32131,-0.56229 0.56229,-1.20491 0.32131,-0.64262 0.56229,-1.20491 0.24098,-0.56229 0.32131,-0.80327 v -0.40164 -0.48196 q -3.13276,-1.36556 -6.26552,-1.92785 -3.05244,-0.56229 -6.42618,-0.56229 z m -14.29824,-1.68687 q 0.08033,0.24098 0.321309,0.8836 0.240981,0.56229 0.481963,1.20491 0.321309,0.64262 0.56229,1.20491 0.240982,0.56229 0.321309,0.80327 0,0.0803 0.160655,0.24098 0.160654,0.0803 0.240981,0.0803 0.160655,0 0.963927,0.0803 0.883599,0 1.12458,0 1.365563,0 2.731125,-0.16066 1.44589,-0.24098 2.89178,-0.72294 0.160654,0 0.642617,-0.16066 0.481963,-0.16065 0.963927,-0.40163 0.481963,-0.24099 0.883599,-0.48197 0.401636,-0.24098 0.401636,-0.48196 v -5.06061 q -3.293416,0 -6.265522,0.48196 -2.972106,0.40164 -6.02454,1.60654 -0.08033,0.0803 -0.240982,0.24099 -0.160654,0.0803 -0.160654,0.16065 v 0.32131 z"
           id="path15455" />
      </g>
    </g>
    <path
       id="path13588"
       style="fill:#002e38;stroke:#002e38;stroke-width:9.8651;paint-order:stroke markers fill"
       d="m 90.776105,229.6326 a 3.0322468,4.2741823 0 0 1 -3.032247,4.27418 3.0322468,4.2741823 0 0 1 -3.032246,-4.27418 3.0322468,4.2741823 0 0 1 3.032246,-4.27418 3.0322468,4.2741823 0 0 1 3.032247,4.27418 z" />
    <path
       id="rect13696"
       style="fill:#002e38;stroke:#002e38;stroke-width:8.40917;paint-order:stroke markers fill"
       d="m 122.01731,227.80946 h 2.90748 v 6.81071 h -2.90748 z" />
    <g
       aria-label="the"
       transform="scale(1.0438457,0.957996)"
       id="text14532"
       style="font-size:39.9399px;font-family:'THE AMAZING SPIDER-MAN';-inkscape-font-specification:'THE AMAZING SPIDER-MAN, Normal';fill:#df2e38;stroke:#2c3333;stroke-width:6.33256;paint-order:stroke fill markers">
      <path
         d="M 80.492993,49.111014 80.173474,46.914319 77.976779,44.158466 V 19.954887 l -1.278077,-0.319519 -0.319519,-1.318017 -3.79429,-3.235132 v -1.757355 h 14.897582 l 0.639039,0.599098 v 1.278077 l -2.236635,2.236634 -0.639038,0.958558 -1.238137,0.319519 -0.639038,32.630898 H 82.090589 L 81.132031,50.38909 Z m 1.917115,1.597596 h 0.639038 v -2.835733 l 0.31952,-30.114684 h 1.557656 l 0.319519,-0.639039 2.236634,-2.236634 V 13.923962 H 73.223931 v 0.639039 l 3.794291,3.83423 0.319519,0.599098 1.278077,0.439339 v 24.563039 l 2.196694,2.596093 0.319519,2.516214 z"
         id="path15414" />
      <path
         d="m 109.64911,50.029631 v -1.837235 l -2.51622,-2.995492 V 30.379201 h -7.628519 l -0.31952,21.847125 H 97.307676 L 96.029599,49.710112 V 47.872877 L 93.513386,44.877384 V 30.379201 l -0.838738,-0.439339 -0.559159,-2.196695 -0.519218,-0.559158 v -1.198197 l 1.917115,-0.399399 V 18.67681 L 91.91579,16.719755 91.596271,15.441678 91.276751,14.84258 v -1.677476 l 7.9081,0.399399 0.31952,12.02191 h 7.628519 v -6.590084 l -1.59759,-1.957055 -0.31952,-1.278076 -0.31952,-1.238137 v -1.278077 h 7.94804 v 39.62038 h -1.27808 l -0.95856,-0.958557 z m 2.23663,2.196695 h 0.31952 l 0.51922,-38.342304 -6.86967,-0.359459 -0.35945,0.399399 0.67897,2.795793 1.5976,1.957055 v 7.548641 H 98.865332 L 98.585753,13.884022 H 91.91579 v 0.639039 l 0.319519,0.639038 0.319519,1.238137 1.557656,1.996995 v 7.78828 l -2.036935,0.399399 0.798798,1.557656 0.31952,1.278077 0.918617,0.479279 v 14.657943 l 2.556154,2.995493 v 2.476273 l 1.917115,1.877176 0.279579,-22.166645 h 8.906598 v 14.897583 l 0.63904,1.238137 0.91862,0.958557 0.95855,1.437837 v 2.076875 l 0.63904,0.599098 z"
         id="path15416" />
      <path
         d="m 119.79385,33.654273 -1.55766,-2.076875 v -2.675973 l 1.23814,-0.399399 V 17.598433 l -3.15525,-2.556154 v -1.757355 h 13.93902 v 1.917115 l -1.87717,1.877175 -0.47928,0.958558 h -1.11832 l -0.95856,-0.479279 -0.31952,3.95405 v 7.309002 h 5.07237 v 1.597596 l -0.63904,0.599098 -1.07837,2.156755 -3.03544,0.439339 V 46.55486 l 4.43333,0.359459 v 1.557656 l -0.95856,0.958558 -1.55765,0.319519 -2.55616,1.877175 h -0.95855 l -0.91862,-0.639038 -0.95856,1.437836 -0.95856,0.479279 h -0.95855 l -0.63904,-1.278077 z m 0.95856,18.611993 h 0.63903 l 2.03694,-2.036935 1.47778,0.998497 2.51621,-2.116814 1.55766,-0.31952 0.63903,-0.639038 v -0.639038 l -4.43333,-0.359459 V 34.53295 l 0.7988,-1.557656 2.3964,-0.359459 0.5991,-1.278077 0.95855,-1.238136 v -0.639039 l -5.07236,-0.359459 V 17.718253 l 0.87867,-0.838738 1.51772,0.758858 0.7988,-1.198197 1.55765,-1.557656 v -0.958558 h -12.66094 v 0.639039 l 3.15525,3.155252 v 11.74233 h -1.71742 l 0.43934,0.958558 0.31952,1.238137 0.95856,1.437836 v 17.893075 z"
         id="path15418" />
    </g>
    <g
       aria-label="amazing"
       transform="scale(0.93788967,1.0662235)"
       id="text14536"
       style="font-size:41.0267px;font-family:'THE AMAZING SPIDER-MAN';-inkscape-font-specification:'THE AMAZING SPIDER-MAN, Normal';fill:#df2e38;stroke:#2c3333;stroke-width:6.50482;paint-order:stroke fill markers">
      <path
         d="m 59.271151,94.392797 -0.49232,-1.476961 -2.625709,-2.092362 -1.148747,-6.851458 -0.328214,-1.600042 -0.533347,-3.815483 -0.410267,-0.451293 H 48.35805 l -1.476962,9.148954 -0.328213,1.600041 -0.820534,6.030925 -0.492321,0.49232 h -1.600041 v -4.22575 l -0.656427,-1.312854 -0.328214,-2.584682 -1.148747,-1.887229 0.984641,-6.646325 -0.492321,-2.871869 -0.902587,-1.723121 0.574374,-0.574374 1.600041,-0.36924 1.805175,-11.651583 -1.148748,-2.297495 -0.6154,-0.656427 v -0.984641 h 13.333677 l 2.379548,15.631173 1.846202,0.328213 v 2.297495 l -1.189775,2.010309 1.189775,8.082259 0.328213,2.912896 0.656428,3.282136 v 3.897536 h -1.353882 z m 1.600042,0.984641 h 0.328213 v -3.241109 l -0.656427,-3.282136 -0.328213,-2.912896 -1.189775,-8.000206 1.189775,-2.420575 V 74.207661 L 58.942938,73.879448 58.450617,73.387127 56.112096,57.920062 H 43.722033 l 1.189774,1.641068 0.902587,1.805174 -2.092361,12.513144 h -0.738481 l -1.107721,0.36924 0.779507,1.600041 0.533347,2.789816 -1.10772,6.687352 1.230801,1.600041 0.328213,2.584682 0.615401,1.312854 v 3.897537 h 0.86156 l 0.779508,-5.866818 0.328213,-1.600041 0.656427,-4.22575 0.328214,-1.641068 0.328214,-2.297496 0.533347,-1.600041 h 6.195031 l 0.697454,2.010308 0.697454,5.128338 0.656427,3.282136 0.410267,2.748789 2.461602,1.641068 0.697454,1.764148 z m -10.379755,-36.103495 0.943614,0.943614 0.984641,6.851459 0.984641,4.882177 v 1.928255 H 48.85037 l -0.574374,-0.533347 z m 2.256468,13.949078 v -2.256469 l -0.98464,-3.897536 -0.861561,-6.154005 -2.010308,12.30801 z"
         id="path15421" />
      <path
         d="M 69.97914,90.659368 68.297045,89.51062 67.763698,87.992632 66.820084,87.007991 66.49187,61.940678 65.507229,60.012423 64.522589,58.699569 v -0.984641 h 6.728378 l 1.723122,2.584682 0.98464,2.953923 0.328214,0.656427 1.723121,4.307803 0.984641,0.943614 0.533347,-1.682094 0.779508,-1.517988 2.174415,-5.948872 0.328213,-2.297495 h 6.195032 v 1.641068 l -0.656427,1.600041 -0.328214,32.5752 h -1.476961 l -0.492321,-0.984641 -0.451293,-2.789816 -2.133389,-2.830842 -0.328213,-14.646532 -2.625709,6.933513 -0.984641,1.928254 h -1.600041 l -0.656427,-3.241109 -1.312855,-2.584682 -1.312854,-3.282136 -0.328214,21.497991 h -1.517987 z m 1.394907,2.215441 h 0.656428 V 70.720392 l 0.287186,-0.287187 0.820534,0.779507 0.492321,1.476961 0.328213,0.656428 2.297496,5.866818 0.36924,1.559014 0.820534,-0.820534 3.282136,-8.246366 h 1.066694 l 0.328214,14.974745 2.174415,2.912895 0.451293,3.282136 h 0.943614 V 60.627824 l 0.656428,-1.271828 v -0.984641 h -4.882178 l -0.328213,1.928255 -0.328214,0.656427 -0.328213,0.984641 -3.035976,7.58994 -0.697454,0.73848 -2.215442,-3.692403 -1.230801,-3.651376 -0.984641,-1.969282 -1.025667,-2.584682 -6.359138,-0.328213 1.230801,1.641068 0.943614,2.420575 v 24.246779 l 1.148747,1.148748 0.533347,1.600041 1.846202,1.230801 z"
         id="path15423" />
      <path
         d="m 108.50322,94.392797 -0.49232,-1.476961 -2.62571,-2.092362 -1.14874,-6.851458 -0.32822,-1.600042 -0.53334,-3.815483 -0.41027,-0.451293 h -5.3745 l -1.476961,9.148954 -0.328213,1.600041 -0.820534,6.030925 -0.492321,0.49232 H 92.87205 v -4.22575 l -0.656427,-1.312854 -0.328214,-2.584682 -1.148747,-1.887229 0.98464,-6.646325 -0.49232,-2.871869 -0.902587,-1.723121 0.574373,-0.574374 1.600042,-0.36924 1.805175,-11.651583 -1.148748,-2.297495 -0.615401,-0.656427 v -0.984641 h 13.333674 l 2.37955,15.631173 1.8462,0.328213 v 2.297495 l -1.18977,2.010309 1.18977,8.082259 0.32822,2.912896 0.65642,3.282136 v 3.897536 h -1.35388 z m 1.60004,0.984641 h 0.32822 v -3.241109 l -0.65643,-3.282136 -0.32821,-2.912896 -1.18978,-8.000206 1.18978,-2.420575 v -1.312855 l -1.27183,-0.328213 -0.49232,-0.492321 -2.33852,-15.467065 H 92.954103 l 1.189775,1.641068 0.902587,1.805174 -2.092362,12.513144 h -0.73848 l -1.107721,0.36924 0.779507,1.600041 0.533347,2.789816 -1.107721,6.687352 1.230801,1.600041 0.328214,2.584682 0.615401,1.312854 v 3.897537 h 0.86156 l 0.779507,-5.866818 0.328214,-1.600041 0.656427,-4.22575 0.328214,-1.641068 0.328213,-2.297496 0.533348,-1.600041 h 6.195036 l 0.69745,2.010308 0.69745,5.128338 0.65643,3.282136 0.41027,2.748789 2.4616,1.641068 0.69745,1.764148 z m -10.379751,-36.103495 0.943611,0.943614 0.98464,6.851459 0.98464,4.882177 v 1.928255 h -4.553959 l -0.574374,-0.533347 z m 2.256471,13.949078 v -2.256469 l -0.98464,-3.897536 -0.86156,-6.154005 -2.010312,12.30801 z"
         id="path15425" />
      <path
         d="m 115.64189,91.397848 0.82053,-1.641068 1.76415,-7.179672 0.49232,-2.420575 0.82053,-2.461602 4.55397,-15.631173 h -2.9129 l -0.32821,0.328214 -1.47696,0.49232 -0.82054,0.820534 -0.98464,2.912896 h -1.18977 l -2.05134,-6.154005 v -2.625709 h 10.09257 l 6.31811,-0.410267 0.86156,0.410267 v 1.312855 l -0.32821,0.656427 -0.32821,0.984641 -1.35388,1.764148 -0.94362,3.733429 -4.06164,13.046491 -2.13339,8.4515 8.16431,0.36924 v 1.682095 l -1.31285,0.902587 -2.78982,0.328214 -2.91289,1.928254 h -2.09236 l -0.98465,0.328214 -1.31285,0.328214 -1.31285,0.656427 h -0.98464 l -1.27183,-0.410267 z m 1.80517,2.338522 1.43594,-0.738481 h 0.98464 l 1.92825,-0.98464 0.65643,0.328213 h 0.98464 l 2.95392,-1.928255 2.9129,-0.328213 0.65643,-0.656427 v -0.984641 h -7.8361 l -0.4513,-0.451294 7.30275,-25.436553 1.64107,-2.420575 v -0.656428 l 0.32822,-0.656427 v -0.656427 h -5.21039 l -1.31286,0.328214 h -9.88743 l 0.45129,1.312854 0.32821,1.271828 1.60005,5.251417 1.10772,-3.323163 1.18977,-0.6154 0.98464,-0.984641 h 4.22575 l 0.36924,0.410267 -4.26678,14.892692 -0.32821,1.312854 -0.65643,1.969282 -1.96928,7.795073 -1.27183,3.938563 v 1.600041 z"
         id="path15427" />
      <path
         d="m 138.37068,89.059326 -1.88723,-2.297495 -0.32821,-24.000619 -1.31286,-1.723121 -0.32821,-0.984641 -0.32821,-0.6154 v -1.723122 l 7.17967,0.410267 v 35.159881 h -1.31285 l -1.31286,-1.641068 z m 2.01031,3.569323 h 0.32821 l 0.0821,-34.134213 -5.94888,-0.04103 v 0.656427 l 0.32822,0.656427 0.32821,0.943614 1.27183,1.723122 v 23.672405 l 2.29749,3.035976 v 1.764148 z"
         id="path15429" />
      <path
         d="m 149.81712,94.721011 -0.36924,-1.887228 -2.21544,-3.118029 V 62.515052 l -0.94362,-1.394908 -0.36924,-1.559014 -0.65643,-0.656427 v -1.271828 h 6.68736 l 0.49232,0.943614 0.6154,2.625709 0.32821,0.656427 0.32821,1.271828 1.31286,3.938563 1.96928,6.810432 0.6154,-13.702918 -1.60004,-1.600041 v -0.943614 h 8.12329 v 3.241109 l -0.65643,0.984641 -0.6154,33.847027 h -1.43594 l -0.98464,-1.476962 -0.53334,-2.092361 -1.55902,-1.066694 -0.41027,-1.559015 -1.72312,-2.174415 -0.86156,-3.035976 -0.32821,-0.656427 -0.65643,-2.256468 -0.32821,-0.656428 -1.51799,-4.636017 -0.41027,20.26719 h -1.64107 l -0.32821,-0.984641 z m 1.31285,0.984641 h 0.65643 V 82.371974 l 0.32821,-7.507886 h 0.90259 l 0.36924,1.641068 3.61035,10.748996 1.60004,1.928254 0.32821,1.312855 1.64107,1.641068 0.36924,1.559014 1.27183,1.846202 0.65643,-33.68292 0.6154,-1.312854 v -2.256469 l -7.13865,-0.451294 1.72312,1.723122 -0.41026,15.302958 -0.4513,0.451294 -1.18977,-2.379548 -1.31286,-4.594991 -0.32821,-0.943614 -0.65643,-2.297495 -1.27182,-3.897536 -0.65643,-2.625709 -0.65643,-0.656427 h -5.21039 v 0.656427 l 0.98464,0.984641 v 1.312854 l 0.94362,1.476961 v 26.995568 l 2.29749,3.446243 0.32821,1.600041 z"
         id="path15431" />
      <path
         d="m 171.97155,95.746678 -0.32822,-5.784764 -1.92825,-1.312855 V 62.638132 l -1.31286,-1.764148 -0.32821,-0.943614 -0.32821,-0.656427 v -1.682095 l 7.17967,0.36924 h 10.09257 v 2.625709 l -2.05134,6.154005 h -1.2308 l -0.98464,-3.035976 -1.27183,-0.86156 -0.98464,-0.328214 -0.32821,-0.328214 h -3.24111 v 29.005877 l 0.6154,-0.984641 0.98464,-1.312854 0.32821,-0.656428 1.31286,-1.928254 0.32821,-0.656428 0.98464,-0.98464 V 73.264047 l -1.96928,-1.969281 v -1.600042 h 6.85146 v 17.559428 l -1.31285,2.625708 -0.65643,0.984641 -3.40522,5.538604 h -1.14875 l -0.65642,-0.328213 h -0.98464 l -0.65643,1.271828 -1.60004,1.641068 h -1.31286 v -2.256469 z m 1.31285,2.912896 1.96928,-1.928255 0.6154,-1.312854 h 1.31286 l 0.65642,0.328213 h 0.77951 l 5.08731,-8.20534 V 70.351152 h -5.5386 v 0.656427 l 1.96928,1.928255 V 84.66947 l -1.72312,2.174415 -1.2308,2.379548 -2.17442,2.707762 -0.82053,-0.820534 0.41027,-29.58025 h 3.89753 l 2.78982,1.600042 1.06669,3.118029 0.86156,-1.764148 1.14875,-4.553964 0.41027,-1.312854 h -10.17462 l -0.98465,-0.328214 h -5.21039 v 1.476961 l 1.92826,2.912896 v 25.682713 l 1.96928,1.271828 0.32821,6.112978 0.65643,0.656427 z"
         id="path15433" />
    </g>
    <g
       aria-label="spider man"
       transform="scale(0.96936948,1.0315984)"
       id="text14540"
       style="font-size:36.7653px;font-family:'THE AMAZING SPIDER-MAN';-inkscape-font-specification:'THE AMAZING SPIDER-MAN, Normal';fill:#df2e38;stroke:#2c3333;stroke-width:5.82919;paint-order:stroke fill markers">
      <path
         d="m 20.54233,153.94634 1.17649,-1.72797 0.294122,-0.58824 1.433847,-2.05886 0.294122,-0.58825 0.294123,-0.25735 1.764734,-2.6471 0.882367,-0.88237 v -2.02209 l 0.55148,-0.88237 0.588245,-1.17649 2.242683,-2.86769 -5.367734,-3.82359 H 22.96884 l -0.404419,-1.25002 -2.610336,-2.09563 v -1.61767 l 8.750142,-9.04426 0.441183,-0.88237 h 7.426591 v 2.31621 l -1.838265,5.55156 h -1.066194 l -0.588244,-1.72797 -0.588245,-0.58824 -4.85302,4.85302 6.801581,5.33097 0.404418,2.05885 0.588245,0.88237 v 2.13239 l -8.492785,12.16931 -1.985326,0.66178 -0.919132,1.36032 -2.316214,1.17648 h -1.17649 z m 0.588245,1.17649 h 0.992663 l 2.794163,-2.31621 1.948561,-1.17649 1.544142,-2.35298 6.948642,-10.00016 -1.102959,-1.65444 -0.367653,-1.83827 -2.279449,-2.24268 -2.610336,-1.76474 -2.279449,-1.8015 5.919214,-5.91921 0.882367,0.88237 0.735306,2.20592 2.169153,-7.02218 h -6.838346 l -0.294122,0.58825 -8.750142,9.04426 v 0.8456 l 2.610336,2.64711 0.294123,0.58824 h 1.544142 l 5.47803,4.08095 v 0.88237 l -0.882367,0.8456 -0.294122,0.58824 -0.882368,1.17649 -1.470612,2.20592 0.294123,1.58091 -1.433847,1.76473 -0.588245,1.17649 -1.176489,1.43385 -0.294123,0.58824 -0.294122,0.29413 -0.294123,0.58824 -2.022091,3.05152 z"
         id="path15436" />
      <path
         d="m 41.535344,149.27715 v -25.95631 h -1.727969 v -2.02209 l -0.808837,-1.25002 0.514714,-0.51471 H 53.22671 l 2.610336,2.61034 v 9.70603 l -3.198581,2.8677 -2.022092,0.29412 -4.669193,3.52947 -0.294122,7.53689 -0.882368,0.88236 -0.404418,2.7574 -1.948561,1.61767 h -0.882367 l -0.477949,-0.51471 z m 0.294122,1.6912 1.985327,-1.47061 0.367653,-2.83093 0.882367,-0.88237 0.330888,-7.53688 5.478029,-4.11772 h 1.764735 l 2.647101,-2.6471 v -9.33838 l -2.058856,-2.0221 H 39.807375 l 0.588245,1.17649 -0.514715,1.43385 h 1.654439 l 0.588245,0.58824 v 26.25043 l -0.294123,0.88237 z m 3.823592,-27.35338 0.551479,-0.58825 h 5.257438 l 0.588245,0.58825 v 5.73538 l -1.433847,0.40442 -3.529469,2.61034 -1.139724,0.58824 -0.294122,-0.29412 z m 0.551479,8.45602 4.411836,-2.90446 0.845602,-0.29412 v -5.25744 h -5.257438 z"
         id="path15438" />
      <path
         d="m 61.64597,147.733 -1.691204,-2.05885 -0.294122,-21.5077 -1.17649,-1.54415 -0.294122,-0.88236 -0.294123,-0.55148 v -1.54415 l 6.433928,0.36766 v 31.50786 h -1.17649 l -1.176489,-1.47061 z m 1.8015,3.19859 h 0.294122 l 0.07353,-30.58873 -5.330969,-0.0368 v 0.58825 l 0.294123,0.58824 0.294122,0.8456 1.139724,1.54414 v 21.21358 l 2.058857,2.72064 v 1.5809 z"
         id="path15440" />
      <path
         d="m 71.609355,151.336 -0.294122,-5.25743 -1.727969,-1.0662 v -21.3974 l -1.102959,-1.10296 -0.588245,-2.97799 h 12.426672 l 1.213254,2.02209 0.882368,1.32355 v 21.65476 l -4.485367,7.38983 h -1.066194 l -0.588245,-0.29412 h -0.882367 l -0.588245,1.13972 -1.433846,1.47061 H 72.1976 v -2.02209 z m 1.17649,2.61034 1.764734,-1.72797 0.55148,-1.17649 h 1.176489 l 0.588245,0.29412 h 0.698541 l 4.264775,-6.91187 v -21.21358 l -1.87503,-3.12505 H 68.410774 l 0.588245,0.88237 v 1.17649 l 1.139724,1.17648 v 21.39741 l 1.764735,1.13972 0.294122,5.47803 0.588245,0.58825 z m 1.17649,-30.6255 0.588244,-0.58824 h 2.610337 l 0.588244,0.58824 0.294123,3.49271 0.882367,1.17649 v 13.41933 l -1.544143,1.94856 -1.397081,2.72064 -1.727969,1.72797 -0.698541,-0.66178 z m 0.294122,23.64009 1.139724,-1.17649 0.882367,-1.76473 0.588245,-0.88237 0.294123,-0.55148 1.176489,-1.47061 v -13.12521 l -0.882367,-0.88237 -0.330888,-3.78683 h -2.867693 z"
         id="path15442" />
      <path
         d="m 88.227267,138.28432 -1.433847,-1.91179 v -2.46328 l 1.139724,-0.36765 v -10.03693 l -2.904459,-2.35298 v -1.61767 h 12.83109 v 1.76473 l -1.727969,1.72797 -0.441183,0.88237 h -1.029429 l -0.882367,-0.44118 -0.294122,3.63976 v 6.72805 h 4.669193 v 1.47061 l -0.588245,0.55148 -0.992663,1.98533 -2.794163,0.40442 v 11.91195 l 4.080948,0.33089 v 1.43385 l -0.882367,0.88237 -1.433847,0.29412 -2.352979,1.72797 h -0.882367 l -0.845602,-0.58825 -0.882367,1.32355 -0.882367,0.44119 h -0.882368 l -0.588244,-1.17649 z m 0.882367,17.13263 h 0.588245 l 1.87503,-1.87503 1.360316,0.91913 2.316214,-1.94856 1.433847,-0.29412 0.588245,-0.58824 v -0.58825 l -4.080949,-0.33089 v -11.61783 l 0.735306,-1.43385 2.205918,-0.33089 0.55148,-1.17649 0.882367,-1.13972 v -0.58824 l -4.669193,-0.33089 v -10.47811 l 0.808836,-0.77207 1.397082,0.69854 0.735306,-1.10296 1.433847,-1.43385 v -0.88237 H 85.61693 v 0.58825 l 2.904459,2.90446 v 10.809 h -1.580908 l 0.404418,0.88236 0.294123,1.13973 0.882367,1.32355 v 16.47085 z"
         id="path15444" />
      <path
         d="m 104.95551,150.67423 -0.36765,-1.10296 -1.17649,-1.43385 -0.29412,-24.52245 -2.0221,-0.36766 v -1.39708 l 0.88237,-0.8456 0.29412,-1.47061 H 113.338 l 1.47061,1.47061 1.39708,0.91913 0.36766,1.39708 0.55148,1.0662 -2.61034,5.95598 -1.58091,3.12505 1.28679,4.15448 0.29412,0.58824 0.29412,0.88237 1.47061,4.08095 0.58825,1.72797 0.55148,1.47061 0.29412,0.88237 1.17649,2.90445 0.80884,3.23535 h -1.69121 l -1.36031,-2.05886 -0.40442,-1.28678 -3.19858,-2.13239 -1.43385,-3.603 -1.17649,-2.61033 -2.13239,-5.33097 -0.51471,-0.51472 -0.25736,19.85326 h -1.17649 l -0.29412,-3.19858 z m 1.98533,4.4486 0.29412,-20.14738 0.55148,-0.55148 0.40442,0.36765 0.77207,1.94856 0.29412,0.58824 0.58825,1.47062 0.58824,1.13972 2.97799,7.42659 3.16182,2.27945 1.13972,2.27945 1.39708,1.36031 -0.9559,-3.71329 -1.02942,-2.02209 -1.43385,-4.37507 -0.29412,-0.58825 -0.58825,-1.76473 -2.46327,-6.69129 1.43384,-3.78682 1.02943,-2.05886 0.58825,-1.47061 1.10296,-2.16915 -0.51472,-1.02943 -0.36765,-1.39708 -1.39708,-0.9559 -1.17649,-1.13973 h -10.69871 l 0.91914,1.28679 -1.58091,0.55148 v 0.77207 l 1.43385,0.29412 0.58824,0.58825 0.29412,24.22833 1.17649,1.43385 0.29413,1.17649 1.17648,1.76473 v 2.61034 z m 0.29412,-31.50786 0.55148,-0.58825 h 4.66919 l 0.58825,0.58825 -0.58825,0.88236 -0.25735,0.58825 -1.17649,2.02209 -0.29413,0.58825 -0.88236,1.47061 -0.29413,0.58824 -0.58824,0.8456 -0.88237,1.76474 -0.55148,0.58824 -0.77207,-0.77207 z m 0.29412,8.45602 0.8456,-1.72797 0.58825,-0.88237 0.29412,-0.58824 0.29412,-0.29413 0.29413,-0.58824 0.58824,-0.88237 1.76474,-3.4927 h -4.11772 l -0.55148,0.58824 z"
         id="path15446" />
      <path
         d="m 142.16197,149.16685 -1.50738,-1.02943 -0.47795,-1.36031 -0.8456,-0.88237 -0.29412,-22.4636 -0.88237,-1.72797 -0.88237,-1.17649 v -0.88237 h 6.02951 l 1.54414,2.31622 0.88237,2.6471 0.29412,0.58825 1.54415,3.86035 0.88236,0.8456 0.47795,-1.50737 0.69854,-1.36032 1.94856,-5.33097 0.29413,-2.05886 h 5.55156 v 1.47062 l -0.58825,1.43384 -0.29412,29.19165 h -1.32355 l -0.44118,-0.88236 -0.40442,-2.50005 -1.9118,-2.5368 -0.29412,-13.12521 -2.35298,6.21333 -0.88237,1.72797 h -1.43384 l -0.58825,-2.90446 -1.17649,-2.31621 -1.17649,-2.94123 -0.29412,19.26502 h -1.36032 z m 1.25002,1.98533 h 0.58824 v -19.85326 l 0.25736,-0.25736 0.73531,0.69854 0.44118,1.32355 0.29412,0.58824 2.05886,5.25744 0.33089,1.39708 0.7353,-0.7353 2.94123,-7.38983 h 0.95589 l 0.29413,13.41934 1.94856,2.61033 0.40442,2.94123 h 0.8456 v -28.89753 l 0.58824,-1.13972 v -0.88237 h -4.37507 l -0.29412,1.72797 -0.29412,0.58824 -0.29413,0.88237 -2.72063,6.80158 -0.62501,0.66178 -1.98532,-3.30888 -1.10296,-3.27211 -0.88237,-1.76474 -0.91913,-2.31621 -5.69862,-0.29412 1.10295,1.47061 0.84561,2.16915 v 21.72829 l 1.02942,1.02943 0.47795,1.43385 1.65444,1.10296 z"
         id="path15448" />
      <path
         d="m 176.68459,152.51249 -0.44118,-1.32355 -2.35298,-1.87503 -1.02943,-6.1398 -0.29412,-1.43385 -0.47795,-3.41917 -0.36765,-0.40442 h -4.81626 l -1.32355,8.19866 -0.29412,1.43385 -0.73531,5.4045 -0.44118,0.44118 h -1.43385 v -3.78683 l -0.58824,-1.17648 -0.29412,-2.31622 -1.02943,-1.6912 0.88237,-5.95598 -0.44119,-2.57357 -0.80883,-1.54414 0.51471,-0.51472 1.43385,-0.33089 1.61767,-10.44134 -1.02943,-2.05886 -0.55148,-0.58824 v -0.88237 h 11.94872 l 2.13239,14.00758 1.65444,0.29412 v 2.05886 l -1.06619,1.8015 1.06619,7.24276 0.29412,2.61034 0.58825,2.94122 v 3.49271 h -1.21326 z m 1.43385,0.88237 h 0.29412 v -2.90446 l -0.58824,-2.94122 -0.29412,-2.61034 -1.0662,-7.16923 1.0662,-2.16915 v -1.17649 l -1.13973,-0.29413 -0.44118,-0.44118 -2.09562,-13.86052 h -11.10313 l 1.0662,1.47061 0.80883,1.61768 -1.87503,11.21341 h -0.66177 l -0.99266,0.33089 0.69854,1.43385 0.47795,2.50004 -0.99267,5.99274 1.10296,1.43385 0.29412,2.31621 0.55148,1.17649 v 3.49271 h 0.77207 l 0.69855,-5.25744 0.29412,-1.43385 0.58824,-3.78682 0.29412,-1.47062 0.29413,-2.05885 0.47795,-1.43385 h 5.55156 l 0.62501,1.8015 0.62501,4.59566 0.58824,2.94123 0.36765,2.46327 2.20592,1.47061 0.62501,1.58091 z m -9.30162,-32.35346 0.8456,0.8456 0.88237,6.1398 0.88237,4.37507 v 1.72797 h -4.08095 l -0.51472,-0.47795 z m 2.02209,12.5002 v -2.02209 l -0.88237,-3.49271 -0.77207,-5.51479 -1.8015,11.02959 z"
         id="path15450" />
      <path
         d="m 185.98623,152.80662 -0.33089,-1.69121 -1.98532,-2.79416 v -24.3754 l -0.84561,-1.25002 -0.33088,-1.39708 -0.58825,-0.58824 v -1.13973 h 5.99275 l 0.44118,0.84561 0.55148,2.35298 0.29412,0.58824 0.29412,1.13972 1.17649,3.52947 1.76474,6.10304 0.55148,-12.27961 -1.43385,-1.43384 v -0.84561 h 7.27953 v 2.90446 l -0.58824,0.88237 -0.55148,30.33137 h -1.28679 l -0.88237,-1.32355 -0.47795,-1.87503 -1.39708,-0.9559 -0.36765,-1.39708 -1.54414,-1.94856 -0.77207,-2.72063 -0.29413,-0.58825 -0.58824,-2.02209 -0.29412,-0.58824 -1.36032,-4.15448 -0.36765,18.16206 h -1.47062 l -0.29412,-0.88237 z m 1.17649,0.88236 h 0.58824 v -11.94872 l 0.29413,-6.72805 h 0.80883 l 0.33089,1.47061 3.23535,9.63251 1.43384,1.72797 0.29413,1.17649 1.47061,1.47061 0.33089,1.39708 1.13972,1.65444 0.58825,-30.18431 0.55148,-1.17649 v -2.02209 l -6.39717,-0.40442 1.54415,1.54414 -0.36766,13.71346 -0.40442,0.40442 -1.06619,-2.13239 -1.17649,-4.11771 -0.29412,-0.8456 -0.58825,-2.05886 -1.13972,-3.4927 -0.58825,-2.35298 -0.58824,-0.58825 h -4.66919 v 0.58825 l 0.88236,0.88236 v 1.17649 l 0.84561,1.32355 v 24.19157 l 2.05885,3.08829 0.29412,1.43384 z"
         id="path15452" />
    </g>
  </g>
</svg>
